<svg width="24" height="24" viewBox="0 0 24 24" fill="none" xmlns="http://www.w3.org/2000/svg">
<path d="M14.0875 9.085H19.8967C20.9123 9.085 21.4797 10.2569 20.8498 11.0536L12.4941 21.6211C11.8053 22.4922 10.4053 22.059 10.3289 20.9511L9.91258 14.915H4.10328C3.08772 14.915 2.52031 13.743 3.15021 12.9464L14.0875 9.085ZM14.0875 9.085L13.6712 3.04885C13.5948 1.94101 12.1948 1.50775 11.506 2.37886C11.506 2.37886 11.506 2.37886 11.506 2.37886L3.15022 12.9464L14.0875 9.085ZM10.6664 20.176C10.6666 20.1756 10.6669 20.1753 10.6672 20.1749L10.6664 20.176L10.6664 20.176Z" stroke="#303030" stroke-width="2.33" stroke-linejoin="round"/>
</svg>
